%TF.GenerationSoftware,KiCad,Pcbnew,10.0.1*%
%TF.CreationDate,2026-06-24T11:42:33+02:00*%
%TF.ProjectId,node,6e6f6465-2e6b-4696-9361-645f70636258,rev?*%
%TF.SameCoordinates,Original*%
%TF.FileFunction,Paste,Top*%
%TF.FilePolarity,Positive*%
%FSLAX46Y46*%
G04 Gerber Fmt 4.6, Leading zero omitted, Abs format (unit mm)*
G04 Created by KiCad (PCBNEW 10.0.1) date 2026-06-24 11:42:33*
%MOMM*%
%LPD*%
G01*
G04 APERTURE LIST*
G04 Aperture macros list*
%AMRoundRect*
0 Rectangle with rounded corners*
0 $1 Rounding radius*
0 $2 $3 $4 $5 $6 $7 $8 $9 X,Y pos of 4 corners*
0 Add a 4 corners polygon primitive as box body*
4,1,4,$2,$3,$4,$5,$6,$7,$8,$9,$2,$3,0*
0 Add four circle primitives for the rounded corners*
1,1,$1+$1,$2,$3*
1,1,$1+$1,$4,$5*
1,1,$1+$1,$6,$7*
1,1,$1+$1,$8,$9*
0 Add four rect primitives between the rounded corners*
20,1,$1+$1,$2,$3,$4,$5,0*
20,1,$1+$1,$4,$5,$6,$7,0*
20,1,$1+$1,$6,$7,$8,$9,0*
20,1,$1+$1,$8,$9,$2,$3,0*%
G04 Aperture macros list end*
%ADD10RoundRect,0.150000X-0.150000X0.512500X-0.150000X-0.512500X0.150000X-0.512500X0.150000X0.512500X0*%
%ADD11RoundRect,0.225000X0.225000X0.250000X-0.225000X0.250000X-0.225000X-0.250000X0.225000X-0.250000X0*%
%ADD12RoundRect,0.147500X-0.172500X0.147500X-0.172500X-0.147500X0.172500X-0.147500X0.172500X0.147500X0*%
%ADD13RoundRect,0.250000X0.255000X0.440000X-0.255000X0.440000X-0.255000X-0.440000X0.255000X-0.440000X0*%
%ADD14RoundRect,0.150000X0.825000X0.150000X-0.825000X0.150000X-0.825000X-0.150000X0.825000X-0.150000X0*%
%ADD15RoundRect,0.200000X-0.275000X0.200000X-0.275000X-0.200000X0.275000X-0.200000X0.275000X0.200000X0*%
%ADD16R,1.100000X1.630000*%
%ADD17RoundRect,0.225000X-0.250000X0.225000X-0.250000X-0.225000X0.250000X-0.225000X0.250000X0.225000X0*%
%ADD18RoundRect,0.225000X0.250000X-0.225000X0.250000X0.225000X-0.250000X0.225000X-0.250000X-0.225000X0*%
%ADD19RoundRect,0.250000X0.275000X0.250000X-0.275000X0.250000X-0.275000X-0.250000X0.275000X-0.250000X0*%
%ADD20RoundRect,0.250000X0.850000X0.275000X-0.850000X0.275000X-0.850000X-0.275000X0.850000X-0.275000X0*%
%ADD21RoundRect,0.140000X0.170000X-0.140000X0.170000X0.140000X-0.170000X0.140000X-0.170000X-0.140000X0*%
%ADD22RoundRect,0.218750X0.218750X0.256250X-0.218750X0.256250X-0.218750X-0.256250X0.218750X-0.256250X0*%
G04 APERTURE END LIST*
D10*
%TO.C,Q1*%
X190392500Y-100652500D03*
X189442500Y-100652500D03*
X188492500Y-100652500D03*
X188492500Y-102927500D03*
X189442500Y-102927500D03*
X190392500Y-102927500D03*
%TD*%
D11*
%TO.C,C2*%
X187320000Y-118080000D03*
X185770000Y-118080000D03*
%TD*%
D12*
%TO.C,L2*%
X194795000Y-134660000D03*
X194795000Y-135630000D03*
%TD*%
D11*
%TO.C,C1*%
X187320000Y-119540000D03*
X185770000Y-119540000D03*
%TD*%
D13*
%TO.C,U7*%
X206255000Y-99407500D03*
X206255000Y-97757500D03*
X205055000Y-99407500D03*
X205055000Y-97757500D03*
D14*
X208130000Y-100487500D03*
X208130000Y-99217500D03*
X208130000Y-97947500D03*
X208130000Y-96677500D03*
X203180000Y-96677500D03*
X203180000Y-97947500D03*
X203180000Y-99217500D03*
X203180000Y-100487500D03*
%TD*%
D15*
%TO.C,R4*%
X193080000Y-105285000D03*
X193080000Y-106935000D03*
%TD*%
D16*
%TO.C,U1*%
X194800000Y-121542500D03*
X193300000Y-121542500D03*
X191800000Y-121542500D03*
X190300000Y-121542500D03*
X188800000Y-121542500D03*
X187300000Y-121542500D03*
X185800000Y-121542500D03*
X185800000Y-133142500D03*
X187300000Y-133142500D03*
X188800000Y-133142500D03*
X190300000Y-133142500D03*
X191800000Y-133142500D03*
X193300000Y-133142500D03*
X194800000Y-133142500D03*
%TD*%
D17*
%TO.C,C7*%
X191950000Y-97195000D03*
X191950000Y-98745000D03*
%TD*%
D15*
%TO.C,R8*%
X201000000Y-99005000D03*
X201000000Y-100655000D03*
%TD*%
D18*
%TO.C,C17*%
X201000000Y-97605000D03*
X201000000Y-96055000D03*
%TD*%
D17*
%TO.C,C16*%
X210330000Y-97025000D03*
X210330000Y-98575000D03*
%TD*%
D19*
%TO.C,AE1*%
X191790000Y-137130000D03*
D20*
X190265000Y-138605000D03*
X190265000Y-135655000D03*
%TD*%
D10*
%TO.C,U5*%
X191320000Y-105855000D03*
X190370000Y-105855000D03*
X189420000Y-105855000D03*
X189420000Y-108130000D03*
X190370000Y-108130000D03*
X191320000Y-108130000D03*
%TD*%
D15*
%TO.C,R7*%
X210330000Y-99975000D03*
X210330000Y-101625000D03*
%TD*%
D21*
%TO.C,C20*%
X193535000Y-137125000D03*
X193535000Y-136165000D03*
%TD*%
D22*
%TO.C,F1*%
X190287500Y-97210000D03*
X188712500Y-97210000D03*
%TD*%
D17*
%TO.C,C6*%
X194540000Y-105335000D03*
X194540000Y-106885000D03*
%TD*%
M02*
