%TF.GenerationSoftware,KiCad,Pcbnew,10.0.1*%
%TF.CreationDate,2026-06-24T11:42:33+02:00*%
%TF.ProjectId,node,6e6f6465-2e6b-4696-9361-645f70636258,rev?*%
%TF.SameCoordinates,Original*%
%TF.FileFunction,Legend,Bot*%
%TF.FilePolarity,Positive*%
%FSLAX46Y46*%
G04 Gerber Fmt 4.6, Leading zero omitted, Abs format (unit mm)*
G04 Created by KiCad (PCBNEW 10.0.1) date 2026-06-24 11:42:33*
%MOMM*%
%LPD*%
G01*
G04 APERTURE LIST*
%ADD10C,0.150000*%
%ADD11C,0.100000*%
%ADD12C,0.200000*%
G04 APERTURE END LIST*
D10*
X204580742Y-139358137D02*
X204580742Y-138548614D01*
X204580742Y-138548614D02*
X204628361Y-138453376D01*
X204628361Y-138453376D02*
X204675980Y-138405757D01*
X204675980Y-138405757D02*
X204771218Y-138358137D01*
X204771218Y-138358137D02*
X204961694Y-138358137D01*
X204961694Y-138358137D02*
X205056932Y-138405757D01*
X205056932Y-138405757D02*
X205104551Y-138453376D01*
X205104551Y-138453376D02*
X205152170Y-138548614D01*
X205152170Y-138548614D02*
X205152170Y-139358137D01*
X205580742Y-138405757D02*
X205723599Y-138358137D01*
X205723599Y-138358137D02*
X205961694Y-138358137D01*
X205961694Y-138358137D02*
X206056932Y-138405757D01*
X206056932Y-138405757D02*
X206104551Y-138453376D01*
X206104551Y-138453376D02*
X206152170Y-138548614D01*
X206152170Y-138548614D02*
X206152170Y-138643852D01*
X206152170Y-138643852D02*
X206104551Y-138739090D01*
X206104551Y-138739090D02*
X206056932Y-138786709D01*
X206056932Y-138786709D02*
X205961694Y-138834328D01*
X205961694Y-138834328D02*
X205771218Y-138881947D01*
X205771218Y-138881947D02*
X205675980Y-138929566D01*
X205675980Y-138929566D02*
X205628361Y-138977185D01*
X205628361Y-138977185D02*
X205580742Y-139072423D01*
X205580742Y-139072423D02*
X205580742Y-139167661D01*
X205580742Y-139167661D02*
X205628361Y-139262899D01*
X205628361Y-139262899D02*
X205675980Y-139310518D01*
X205675980Y-139310518D02*
X205771218Y-139358137D01*
X205771218Y-139358137D02*
X206009313Y-139358137D01*
X206009313Y-139358137D02*
X206152170Y-139310518D01*
X206914075Y-138881947D02*
X207056932Y-138834328D01*
X207056932Y-138834328D02*
X207104551Y-138786709D01*
X207104551Y-138786709D02*
X207152170Y-138691471D01*
X207152170Y-138691471D02*
X207152170Y-138548614D01*
X207152170Y-138548614D02*
X207104551Y-138453376D01*
X207104551Y-138453376D02*
X207056932Y-138405757D01*
X207056932Y-138405757D02*
X206961694Y-138358137D01*
X206961694Y-138358137D02*
X206580742Y-138358137D01*
X206580742Y-138358137D02*
X206580742Y-139358137D01*
X206580742Y-139358137D02*
X206914075Y-139358137D01*
X206914075Y-139358137D02*
X207009313Y-139310518D01*
X207009313Y-139310518D02*
X207056932Y-139262899D01*
X207056932Y-139262899D02*
X207104551Y-139167661D01*
X207104551Y-139167661D02*
X207104551Y-139072423D01*
X207104551Y-139072423D02*
X207056932Y-138977185D01*
X207056932Y-138977185D02*
X207009313Y-138929566D01*
X207009313Y-138929566D02*
X206914075Y-138881947D01*
X206914075Y-138881947D02*
X206580742Y-138881947D01*
D11*
X212771531Y-135441151D02*
X212200103Y-135441151D01*
X212485817Y-135441151D02*
X212485817Y-136441151D01*
X212485817Y-136441151D02*
X212390579Y-136298294D01*
X212390579Y-136298294D02*
X212295341Y-136203056D01*
X212295341Y-136203056D02*
X212200103Y-136155437D01*
%TO.C,U2*%
D12*
X196952647Y-106469576D02*
X214997548Y-106469576D01*
X214997548Y-139807957D01*
X196952647Y-139807957D01*
X196952647Y-106469576D01*
%TD*%
M02*
