M48
; DRILL file KiCad 10.0.1 date 2026-06-24T11:42:31
; FORMAT={-:-/ absolute / metric / decimal}
; #@! TF.CreationDate,2026-06-24T11:42:31+02:00
; #@! TF.GenerationSoftware,Kicad,Pcbnew,10.0.1
; #@! TF.FileFunction,Plated,1,2,PTH
FMAT,2
METRIC
; #@! TA.AperFunction,Plated,PTH,ComponentDrill
T1C0.200
; #@! TA.AperFunction,Plated,PTH,ViaDrill
T2C0.300
; #@! TA.AperFunction,Plated,PTH,ComponentDrill
T3C0.762
; #@! TA.AperFunction,Plated,PTH,ComponentDrill
T4C0.889
; #@! TA.AperFunction,Plated,PTH,ComponentDrill
T5C0.914
; #@! TA.AperFunction,Plated,PTH,ComponentDrill
T6C0.914
; #@! TA.AperFunction,Plated,PTH,ComponentDrill
T7C1.000
%
G90
G05
T1
X204.955Y-97.382
X204.955Y-98.582
X204.955Y-99.782
X206.355Y-97.382
X206.355Y-98.582
X206.355Y-99.782
T2
X184.58Y-120.86
X184.77Y-119.47
X184.99Y-117.02
X186.65Y-123.04
X186.84Y-116.0
X187.35Y-117.21
X187.37Y-102.11
X187.66Y-124.05
X187.71Y-99.68
X188.8Y-125.23
X188.94Y-101.81
X189.84Y-104.1
X189.85Y-101.81
X189.9Y-123.9
X189.99Y-126.4
X190.09Y-99.59
X190.76Y-101.83
X191.0Y-99.55
X191.12Y-120.14
X191.54Y-100.77
X191.67Y-103.23
X191.75Y-99.95
X191.75Y-128.15
X192.22Y-103.57
X192.23Y-134.43
X192.25Y-106.22
X192.28Y-108.13
X192.38Y-131.85
X192.54Y-135.8
X192.63Y-137.96
X192.72Y-125.51
X193.08Y-98.325
X193.24Y-131.79
X193.3Y-119.39
X193.49Y-134.5
X193.64Y-137.94
X193.67Y-135.16
X193.81Y-96.24
X194.03Y-97.98
X194.09Y-123.18
X194.39Y-137.81
X194.45Y-127.12
X194.772Y-126.498
X195.06Y-137.56
X195.42Y-130.72
X195.49Y-96.2
X195.57Y-137.17
X195.64Y-125.69
X195.81Y-136.53
X195.82Y-131.64
X195.83Y-135.89
X195.86Y-135.26
X196.32Y-120.13
X196.55Y-96.34
X197.11Y-123.33
X198.19Y-98.36
X198.59Y-99.33
X199.76Y-125.3
X200.04Y-129.42
X200.452Y-125.194
X200.72Y-118.34
X201.21Y-122.51
X201.29Y-126.18
X201.55Y-120.31
X201.73Y-123.09
X201.9Y-130.96
X201.99Y-125.4
X202.22Y-118.48
X202.32Y-128.23
X202.83Y-121.05
X203.36Y-127.31
X203.5Y-132.64
X204.13Y-118.31
X204.24Y-126.39
X204.52Y-120.82
X204.78Y-123.04
X205.12Y-119.94
X206.17Y-125.54
X206.4Y-118.55
X206.81Y-120.94
X208.04Y-119.96
X208.17Y-101.79
X208.26Y-125.39
X208.27Y-123.02
X209.43Y-125.39
X209.74Y-120.92
X210.63Y-123.02
X210.82Y-102.68
X211.12Y-120.11
X211.24Y-125.48
X211.8Y-102.21
X212.01Y-137.3
T3
X198.355Y-138.32
X213.595Y-138.32
T4
X205.435Y-110.934
X207.975Y-110.934
X210.515Y-110.934
T5
X213.595Y-107.84
T6
X198.355Y-107.84
X198.355Y-110.38
X198.355Y-112.92
X198.355Y-115.46
X198.355Y-118.0
X198.355Y-120.54
X198.355Y-123.08
X198.355Y-125.62
X198.355Y-128.16
X198.355Y-130.7
X198.355Y-133.24
X198.355Y-135.78
X213.595Y-110.38
X213.595Y-112.92
X213.595Y-115.46
X213.595Y-118.0
X213.595Y-120.54
X213.595Y-123.08
X213.595Y-125.62
X213.595Y-128.16
X213.595Y-130.7
X213.595Y-133.24
X213.595Y-135.78
T7
X185.67Y-97.2
X185.67Y-99.74
X185.67Y-102.28
X194.84Y-109.98
X194.84Y-112.52
X194.84Y-115.06
X194.84Y-117.6
X213.2Y-97.35
X213.2Y-99.89
M30
